<svg xmlns="http://www.w3.org/2000/svg" viewBox="0 0 1290 2796" width="1290" height="2796">
  <defs>
    <linearGradient id="bg3" x1="0%" y1="0%" x2="0%" y2="100%">
      <stop offset="0%" stop-color="#dc2626"/>
      <stop offset="100%" stop-color="#7f1d1d"/>
    </linearGradient>
    <linearGradient id="card3" x1="0%" y1="0%" x2="100%" y2="100%">
      <stop offset="0%" stop-color="#991b1b"/>
      <stop offset="100%" stop-color="#7f1d1d"/>
    </linearGradient>
    <filter id="shadow3" x="-20%" y="-20%" width="140%" height="140%">
      <feGaussianBlur in="SourceAlpha" stdDeviation="40"/>
      <feOffset dx="0" dy="30"/>
      <feComponentTransfer><feFuncA type="linear" slope="0.4"/></feComponentTransfer>
      <feMerge><feMergeNode/><feMergeNode in="SourceGraphic"/></feMerge>
    </filter>
  </defs>

  <rect width="1290" height="2796" fill="url(#bg3)"/>
  <circle cx="200" cy="300" r="200" fill="rgba(255,255,255,0.05)"/>
  <circle cx="1150" cy="2400" r="250" fill="rgba(255,255,255,0.04)"/>

  <text x="645" y="220" font-family="Inter, sans-serif" font-size="80" font-weight="900" fill="#ffffff" text-anchor="middle">Khata Book</text>
  <text x="645" y="320" font-family="Inter, sans-serif" font-size="80" font-weight="900" fill="#fbbf24" text-anchor="middle">Digital Udhaar 📒</text>
  <text x="645" y="400" font-family="Inter, sans-serif" font-size="36" font-weight="500" fill="rgba(255,255,255,0.9)" text-anchor="middle">Customer ka udhaar, ek tap mein WhatsApp reminder</text>

  <g transform="translate(195, 530)" filter="url(#shadow3)">
    <rect x="0" y="0" width="900" height="1900" rx="90" ry="90" fill="#1a1a1a"/>
    <rect x="15" y="15" width="870" height="1870" rx="78" ry="78" fill="#000000"/>
    <rect x="30" y="30" width="840" height="1840" rx="68" ry="68" fill="#f9fafb"/>

    <rect x="350" y="50" width="200" height="40" rx="20" ry="20" fill="#000000"/>
    <text x="80" y="125" font-family="Inter, sans-serif" font-size="28" font-weight="700" fill="#000000">9:41</text>

    <text x="80" y="220" font-family="Inter, sans-serif" font-size="48" font-weight="900" fill="#111827">Khata Book</text>
    <text x="80" y="265" font-family="Inter, sans-serif" font-size="26" font-weight="500" fill="#737373">Customers ka udhaar</text>

    <!-- Total Outstanding Card -->
    <g transform="translate(60, 310)">
      <rect x="0" y="0" width="780" height="320" rx="40" ry="40" fill="url(#card3)"/>
      <text x="30" y="65" font-family="Inter, sans-serif" font-size="26" font-weight="700" fill="rgba(255,255,255,0.85)">📒 TOTAL OUTSTANDING</text>
      <text x="30" y="190" font-family="Inter, sans-serif" font-size="110" font-weight="900" fill="#ffffff">Rs 2,54,800</text>

      <g transform="translate(30, 230)">
        <rect x="0" y="0" width="340" height="70" rx="20" ry="20" fill="rgba(255,255,255,0.15)"/>
        <text x="20" y="32" font-family="Inter, sans-serif" font-size="20" font-weight="600" fill="rgba(255,255,255,0.7)">WITH KHATA</text>
        <text x="20" y="60" font-family="Inter, sans-serif" font-size="34" font-weight="900" fill="#ffffff">28 customers</text>

        <rect x="360" y="0" width="340" height="70" rx="20" ry="20" fill="rgba(255,255,255,0.15)"/>
        <text x="380" y="32" font-family="Inter, sans-serif" font-size="20" font-weight="600" fill="rgba(255,255,255,0.7)">TOTAL CUSTOMERS</text>
        <text x="380" y="60" font-family="Inter, sans-serif" font-size="34" font-weight="900" fill="#ffffff">328 total</text>
      </g>
    </g>

    <!-- Top Debtors Header -->
    <g transform="translate(60, 670)">
      <text x="0" y="40" font-family="Inter, sans-serif" font-size="32" font-weight="900" fill="#111827">⚠️  Top Debtors</text>
      <text x="0" y="80" font-family="Inter, sans-serif" font-size="22" font-weight="500" fill="#9ca3af">Sabse zyada udhaar wale customers</text>
    </g>

    <!-- Debtor 1 -->
    <g transform="translate(60, 800)">
      <rect x="0" y="0" width="780" height="160" rx="28" ry="28" fill="#ffffff" stroke="#fecaca" stroke-width="2"/>
      <circle cx="80" cy="80" r="45" fill="#fee2e2"/>
      <text x="80" y="98" font-family="Inter, sans-serif" font-size="44" font-weight="900" fill="#dc2626" text-anchor="middle">#1</text>
      <text x="150" y="55" font-family="Inter, sans-serif" font-size="36" font-weight="900" fill="#111827">Bilal Hassan</text>
      <text x="150" y="95" font-family="Inter, sans-serif" font-size="22" font-weight="500" fill="#9ca3af">📞 0321-4772935</text>
      <text x="150" y="130" font-family="Inter, sans-serif" font-size="32" font-weight="900" fill="#dc2626">Rs 45,500 udhaar</text>
      <g transform="translate(620, 50)">
        <rect x="0" y="0" width="150" height="60" rx="30" ry="30" fill="#16a34a"/>
        <text x="75" y="40" font-family="Inter, sans-serif" font-size="22" font-weight="700" fill="#ffffff" text-anchor="middle">↓ Receive</text>
      </g>
    </g>

    <!-- Debtor 2 -->
    <g transform="translate(60, 980)">
      <rect x="0" y="0" width="780" height="160" rx="28" ry="28" fill="#ffffff" stroke="#fed7aa" stroke-width="2"/>
      <circle cx="80" cy="80" r="45" fill="#fff7ed"/>
      <text x="80" y="98" font-family="Inter, sans-serif" font-size="44" font-weight="900" fill="#ea580c" text-anchor="middle">#2</text>
      <text x="150" y="55" font-family="Inter, sans-serif" font-size="36" font-weight="900" fill="#111827">Malik Tariq</text>
      <text x="150" y="95" font-family="Inter, sans-serif" font-size="22" font-weight="500" fill="#9ca3af">📞 0300-1234567</text>
      <text x="150" y="130" font-family="Inter, sans-serif" font-size="32" font-weight="900" fill="#ea580c">Rs 32,200 udhaar</text>
      <g transform="translate(620, 50)">
        <rect x="0" y="0" width="150" height="60" rx="30" ry="30" fill="#16a34a"/>
        <text x="75" y="40" font-family="Inter, sans-serif" font-size="22" font-weight="700" fill="#ffffff" text-anchor="middle">↓ Receive</text>
      </g>
    </g>

    <!-- Debtor 3 -->
    <g transform="translate(60, 1160)">
      <rect x="0" y="0" width="780" height="160" rx="28" ry="28" fill="#ffffff" stroke="#fef3c7" stroke-width="2"/>
      <circle cx="80" cy="80" r="45" fill="#fef3c7"/>
      <text x="80" y="98" font-family="Inter, sans-serif" font-size="44" font-weight="900" fill="#d97706" text-anchor="middle">#3</text>
      <text x="150" y="55" font-family="Inter, sans-serif" font-size="36" font-weight="900" fill="#111827">Ahmad Raza</text>
      <text x="150" y="95" font-family="Inter, sans-serif" font-size="22" font-weight="500" fill="#9ca3af">📞 0333-9876543</text>
      <text x="150" y="130" font-family="Inter, sans-serif" font-size="32" font-weight="900" fill="#d97706">Rs 24,800 udhaar</text>
      <g transform="translate(620, 50)">
        <rect x="0" y="0" width="150" height="60" rx="30" ry="30" fill="#16a34a"/>
        <text x="75" y="40" font-family="Inter, sans-serif" font-size="22" font-weight="700" fill="#ffffff" text-anchor="middle">↓ Receive</text>
      </g>
    </g>

    <!-- WhatsApp Reminder CTA -->
    <g transform="translate(60, 1370)">
      <rect x="0" y="0" width="780" height="180" rx="32" ry="32" fill="#dcfce7" stroke="#16a34a" stroke-width="3"/>
      <text x="40" y="65" font-family="Inter, sans-serif" font-size="48" text-anchor="start">💬</text>
      <text x="120" y="60" font-family="Inter, sans-serif" font-size="30" font-weight="900" fill="#111827">WhatsApp Reminder Send</text>
      <text x="120" y="100" font-family="Inter, sans-serif" font-size="22" font-weight="500" fill="#737373">28 customers ko ek saath remind karein</text>
      <rect x="120" y="120" width="280" height="50" rx="25" ry="25" fill="#16a34a"/>
      <text x="260" y="153" font-family="Inter, sans-serif" font-size="22" font-weight="700" fill="#ffffff" text-anchor="middle">Send All Reminders</text>
    </g>

    <!-- Stats Footer -->
    <g transform="translate(60, 1600)">
      <rect x="0" y="0" width="380" height="160" rx="28" ry="28" fill="#fef3c7"/>
      <text x="30" y="50" font-family="Inter, sans-serif" font-size="22" font-weight="700" fill="#92400e">THIS MONTH</text>
      <text x="30" y="115" font-family="Inter, sans-serif" font-size="48" font-weight="900" fill="#111827">Rs 1.2L</text>
      <text x="30" y="145" font-family="Inter, sans-serif" font-size="20" font-weight="500" fill="#737373">recovered ✓</text>

      <rect x="400" y="0" width="380" height="160" rx="28" ry="28" fill="#dbeafe"/>
      <text x="430" y="50" font-family="Inter, sans-serif" font-size="22" font-weight="700" fill="#1e40af">PAYMENTS</text>
      <text x="430" y="115" font-family="Inter, sans-serif" font-size="48" font-weight="900" fill="#111827">156</text>
      <text x="430" y="145" font-family="Inter, sans-serif" font-size="20" font-weight="500" fill="#737373">received</text>
    </g>

    <rect x="270" y="1790" width="300" height="6" rx="3" ry="3" fill="#000000"/>
  </g>

  <text x="645" y="2680" font-family="Inter, sans-serif" font-size="34" font-weight="700" fill="rgba(255,255,255,0.95)" text-anchor="middle">📒 Hisaab kabhi nahi bhoolega</text>
  <text x="645" y="2730" font-family="Inter, sans-serif" font-size="26" font-weight="500" fill="rgba(255,255,255,0.7)" text-anchor="middle">WhatsApp se reminder send kare</text>
</svg>
