<svg xmlns="http://www.w3.org/2000/svg" viewBox="0 0 1290 2796" width="1290" height="2796">
  <defs>
    <linearGradient id="bg4" x1="0%" y1="0%" x2="0%" y2="100%">
      <stop offset="0%" stop-color="#2563eb"/>
      <stop offset="100%" stop-color="#1e3a8a"/>
    </linearGradient>
    <filter id="shadow4" x="-20%" y="-20%" width="140%" height="140%">
      <feGaussianBlur in="SourceAlpha" stdDeviation="40"/>
      <feOffset dx="0" dy="30"/>
      <feComponentTransfer><feFuncA type="linear" slope="0.4"/></feComponentTransfer>
      <feMerge><feMergeNode/><feMergeNode in="SourceGraphic"/></feMerge>
    </filter>
  </defs>

  <rect width="1290" height="2796" fill="url(#bg4)"/>
  <circle cx="1100" cy="400" r="250" fill="rgba(255,255,255,0.05)"/>
  <circle cx="150" cy="2300" r="200" fill="rgba(255,255,255,0.04)"/>

  <text x="645" y="220" font-family="Inter, sans-serif" font-size="80" font-weight="900" fill="#ffffff" text-anchor="middle">Smart Inventory</text>
  <text x="645" y="320" font-family="Inter, sans-serif" font-size="80" font-weight="900" fill="#fbbf24" text-anchor="middle">Auto Stock Alerts 📦</text>
  <text x="645" y="400" font-family="Inter, sans-serif" font-size="36" font-weight="500" fill="rgba(255,255,255,0.9)" text-anchor="middle">1,500+ products, barcodes, variants & low-stock alerts</text>

  <g transform="translate(195, 530)" filter="url(#shadow4)">
    <rect x="0" y="0" width="900" height="1900" rx="90" ry="90" fill="#1a1a1a"/>
    <rect x="15" y="15" width="870" height="1870" rx="78" ry="78" fill="#000000"/>
    <rect x="30" y="30" width="840" height="1840" rx="68" ry="68" fill="#f9fafb"/>

    <rect x="350" y="50" width="200" height="40" rx="20" ry="20" fill="#000000"/>
    <text x="80" y="125" font-family="Inter, sans-serif" font-size="28" font-weight="700" fill="#000000">9:41</text>

    <text x="80" y="220" font-family="Inter, sans-serif" font-size="48" font-weight="900" fill="#111827">Products</text>
    <text x="80" y="265" font-family="Inter, sans-serif" font-size="26" font-weight="500" fill="#737373">1,547 total items</text>

    <g transform="translate(680, 200)">
      <rect x="0" y="0" width="160" height="80" rx="40" ry="40" fill="#2563eb"/>
      <text x="80" y="52" font-family="Inter, sans-serif" font-size="26" font-weight="700" fill="#ffffff" text-anchor="middle">+ New</text>
    </g>

    <!-- Stat Cards -->
    <g transform="translate(60, 310)">
      <rect x="0" y="0" width="250" height="140" rx="28" ry="28" fill="#dbeafe"/>
      <text x="125" y="55" font-family="Inter, sans-serif" font-size="22" font-weight="700" fill="#1e40af" text-anchor="middle">IN STOCK</text>
      <text x="125" y="115" font-family="Inter, sans-serif" font-size="48" font-weight="900" fill="#111827" text-anchor="middle">1,420</text>

      <rect x="265" y="0" width="250" height="140" rx="28" ry="28" fill="#fef3c7"/>
      <text x="390" y="55" font-family="Inter, sans-serif" font-size="22" font-weight="700" fill="#92400e" text-anchor="middle">LOW STOCK</text>
      <text x="390" y="115" font-family="Inter, sans-serif" font-size="48" font-weight="900" fill="#111827" text-anchor="middle">87</text>

      <rect x="530" y="0" width="250" height="140" rx="28" ry="28" fill="#fee2e2"/>
      <text x="655" y="55" font-family="Inter, sans-serif" font-size="22" font-weight="700" fill="#991b1b" text-anchor="middle">OUT</text>
      <text x="655" y="115" font-family="Inter, sans-serif" font-size="48" font-weight="900" fill="#111827" text-anchor="middle">40</text>
    </g>

    <!-- Search Bar -->
    <rect x="60" y="490" width="780" height="90" rx="45" ry="45" fill="#ffffff" stroke="#e5e7eb" stroke-width="2"/>
    <circle cx="120" cy="535" r="18" fill="none" stroke="#9ca3af" stroke-width="4"/>
    <text x="175" y="550" font-family="Inter, sans-serif" font-size="26" font-weight="500" fill="#9ca3af">Search by name, SKU, barcode...</text>
    <rect x="720" y="510" width="90" height="50" rx="25" ry="25" fill="#dbeafe"/>
    <text x="765" y="545" font-family="Inter, sans-serif" font-size="24" text-anchor="middle">⚙️</text>

    <!-- Product Grid -->
    <g transform="translate(60, 620)">
      <!-- Product 1 -->
      <rect x="0" y="0" width="375" height="450" rx="32" ry="32" fill="#ffffff" stroke="#e5e7eb" stroke-width="2"/>
      <rect x="20" y="20" width="335" height="230" rx="24" ry="24" fill="#fef3c7"/>
      <text x="187" y="160" font-family="Inter, sans-serif" font-size="120" text-anchor="middle">🍵</text>
      <text x="30" y="295" font-family="Inter, sans-serif" font-size="28" font-weight="900" fill="#111827">Tapal Danedar</text>
      <text x="30" y="330" font-family="Inter, sans-serif" font-size="20" font-weight="500" fill="#737373">950g pack</text>
      <text x="30" y="385" font-family="Inter, sans-serif" font-size="40" font-weight="900" fill="#2563eb">Rs 1,250</text>
      <rect x="30" y="400" width="120" height="32" rx="16" ry="16" fill="#dcfce7"/>
      <text x="90" y="423" font-family="Inter, sans-serif" font-size="18" font-weight="700" fill="#15803d" text-anchor="middle">85 in stock</text>

      <!-- Product 2 -->
      <rect x="405" y="0" width="375" height="450" rx="32" ry="32" fill="#ffffff" stroke="#e5e7eb" stroke-width="2"/>
      <rect x="425" y="20" width="335" height="230" rx="24" ry="24" fill="#dbeafe"/>
      <text x="592" y="160" font-family="Inter, sans-serif" font-size="120" text-anchor="middle">🥛</text>
      <text x="435" y="295" font-family="Inter, sans-serif" font-size="28" font-weight="900" fill="#111827">Olper's Milk</text>
      <text x="435" y="330" font-family="Inter, sans-serif" font-size="20" font-weight="500" fill="#737373">1 Liter</text>
      <text x="435" y="385" font-family="Inter, sans-serif" font-size="40" font-weight="900" fill="#2563eb">Rs 220</text>
      <rect x="435" y="400" width="140" height="32" rx="16" ry="16" fill="#fef3c7"/>
      <text x="505" y="423" font-family="Inter, sans-serif" font-size="18" font-weight="700" fill="#92400e" text-anchor="middle">⚠ 12 left</text>
    </g>

    <g transform="translate(60, 1090)">
      <!-- Product 3 -->
      <rect x="0" y="0" width="375" height="450" rx="32" ry="32" fill="#ffffff" stroke="#e5e7eb" stroke-width="2"/>
      <rect x="20" y="20" width="335" height="230" rx="24" ry="24" fill="#fef3c7"/>
      <text x="187" y="160" font-family="Inter, sans-serif" font-size="120" text-anchor="middle">🍪</text>
      <text x="30" y="295" font-family="Inter, sans-serif" font-size="28" font-weight="900" fill="#111827">Peek Freans</text>
      <text x="30" y="330" font-family="Inter, sans-serif" font-size="20" font-weight="500" fill="#737373">Sooper biscuit</text>
      <text x="30" y="385" font-family="Inter, sans-serif" font-size="40" font-weight="900" fill="#2563eb">Rs 50</text>
      <rect x="30" y="400" width="120" height="32" rx="16" ry="16" fill="#dcfce7"/>
      <text x="90" y="423" font-family="Inter, sans-serif" font-size="18" font-weight="700" fill="#15803d" text-anchor="middle">240 in stock</text>

      <!-- Product 4 -->
      <rect x="405" y="0" width="375" height="450" rx="32" ry="32" fill="#ffffff" stroke="#e5e7eb" stroke-width="2"/>
      <rect x="425" y="20" width="335" height="230" rx="24" ry="24" fill="#fce7f3"/>
      <text x="592" y="160" font-family="Inter, sans-serif" font-size="120" text-anchor="middle">🍫</text>
      <text x="435" y="295" font-family="Inter, sans-serif" font-size="28" font-weight="900" fill="#111827">Cadbury</text>
      <text x="435" y="330" font-family="Inter, sans-serif" font-size="20" font-weight="500" fill="#737373">Dairy Milk</text>
      <text x="435" y="385" font-family="Inter, sans-serif" font-size="40" font-weight="900" fill="#2563eb">Rs 180</text>
      <rect x="435" y="400" width="120" height="32" rx="16" ry="16" fill="#fee2e2"/>
      <text x="495" y="423" font-family="Inter, sans-serif" font-size="18" font-weight="700" fill="#991b1b" text-anchor="middle">✕ Out</text>
    </g>

    <!-- Bottom Alert -->
    <g transform="translate(60, 1580)">
      <rect x="0" y="0" width="780" height="160" rx="32" ry="32" fill="#fef3c7" stroke="#fbbf24" stroke-width="3"/>
      <text x="40" y="65" font-family="Inter, sans-serif" font-size="44" text-anchor="start">⚠️</text>
      <text x="110" y="60" font-family="Inter, sans-serif" font-size="30" font-weight="900" fill="#111827">Low Stock Alert</text>
      <text x="110" y="100" font-family="Inter, sans-serif" font-size="22" font-weight="500" fill="#737373">87 products need re-stocking</text>
      <rect x="110" y="115" width="240" height="42" rx="21" ry="21" fill="#92400e"/>
      <text x="230" y="143" font-family="Inter, sans-serif" font-size="20" font-weight="700" fill="#ffffff" text-anchor="middle">View All →</text>
    </g>

    <rect x="270" y="1790" width="300" height="6" rx="3" ry="3" fill="#000000"/>
  </g>

  <text x="645" y="2680" font-family="Inter, sans-serif" font-size="34" font-weight="700" fill="rgba(255,255,255,0.95)" text-anchor="middle">📦 Stock kabhi out nahi hoga</text>
  <text x="645" y="2730" font-family="Inter, sans-serif" font-size="26" font-weight="500" fill="rgba(255,255,255,0.7)" text-anchor="middle">Smart alerts before items run out</text>
</svg>
