<svg xmlns="http://www.w3.org/2000/svg" viewBox="0 0 1080 1080" width="1080" height="1080">
  <defs>
    <linearGradient id="bg5" x1="0%" y1="0%" x2="0%" y2="100%">
      <stop offset="0%" stop-color="#dc2626"/>
      <stop offset="100%" stop-color="#991b1b"/>
    </linearGradient>
  </defs>

  <rect width="1080" height="1080" fill="url(#bg5)"/>

  <!-- Top urgent badge -->
  <g transform="translate(540, 140)">
    <rect x="-200" y="-36" width="400" height="72" rx="36" fill="#fbbf24"/>
    <text x="0" y="12" font-family="Inter, sans-serif" font-size="32" font-weight="900" fill="#991b1b" text-anchor="middle" letter-spacing="3">⏰ LIMITED TIME</text>
  </g>

  <!-- Main hook -->
  <text x="540" y="320" font-family="Inter, sans-serif" font-size="80" font-weight="900" fill="#ffffff" text-anchor="middle" letter-spacing="-2">FREE FOREVER</text>
  <text x="540" y="400" font-family="'Noto Nastaliq Urdu', serif" font-size="54" fill="#fbbf24" text-anchor="middle">پہلے 1000 دکانداروں کیلئے</text>
  <text x="540" y="460" font-family="Inter, sans-serif" font-size="34" font-weight="700" fill="#ffffff" text-anchor="middle">Bilkul FREE, hamesha ke liye</text>

  <!-- Icon (your original) -->
  <g transform="translate(540, 660)">
    <rect x="-110" y="-110" width="220" height="220" rx="50" fill="#ffffff"/>
    <g transform="translate(0, 10)" stroke="#16a34a" stroke-width="22" stroke-linecap="round" stroke-linejoin="round" fill="none">
      <line x1="-48" y1="-54" x2="-48" y2="54"/>
      <line x1="-48" y1="54" x2="48" y2="-54"/>
      <line x1="48" y1="-54" x2="48" y2="54"/>
      <polyline points="20,-54 48,-54 48,-26"/>
    </g>
    <circle cx="85" cy="-85" r="15" fill="#f59e0b"/>
  </g>

  <!-- Bottom message -->
  <text x="540" y="850" font-family="Inter, sans-serif" font-size="36" font-weight="800" fill="#ffffff" text-anchor="middle">Mauqa haath se na jaane dein</text>
  <text x="540" y="895" font-family="'Noto Nastaliq Urdu', serif" font-size="38" fill="#fbbf24" text-anchor="middle">دیر مت کریں — ابھی ڈاؤن لوڈ کریں</text>

  <!-- CTA -->
  <g transform="translate(540, 990)">
    <rect x="-260" y="-44" width="520" height="88" rx="44" fill="#fbbf24"/>
    <text x="0" y="14" font-family="Inter, sans-serif" font-size="34" font-weight="900" fill="#991b1b" text-anchor="middle" letter-spacing="2">CLAIM YOUR SPOT →</text>
  </g>

  <text x="540" y="1060" font-family="Inter, sans-serif" font-size="22" font-weight="800" fill="rgba(255,255,255,0.85)" text-anchor="middle">🇵🇰 nafaa.pk</text>
</svg>
