<svg xmlns="http://www.w3.org/2000/svg" viewBox="0 0 1290 2796" width="1290" height="2796">
  <defs>
    <linearGradient id="bg7" x1="0%" y1="0%" x2="100%" y2="100%">
      <stop offset="0%" stop-color="#0f172a"/>
      <stop offset="100%" stop-color="#020617"/>
    </linearGradient>
    <linearGradient id="phone7" x1="0%" y1="0%" x2="100%" y2="100%">
      <stop offset="0%" stop-color="#1f2937"/>
      <stop offset="100%" stop-color="#111827"/>
    </linearGradient>
    <filter id="shadow7" x="-30%" y="-30%" width="160%" height="160%">
      <feGaussianBlur in="SourceAlpha" stdDeviation="50"/>
      <feOffset dx="0" dy="40"/>
      <feComponentTransfer><feFuncA type="linear" slope="0.5"/></feComponentTransfer>
      <feMerge><feMergeNode/><feMergeNode in="SourceGraphic"/></feMerge>
    </filter>
  </defs>

  <rect width="1290" height="2796" fill="url(#bg7)"/>

  <!-- Glowing accent circles -->
  <circle cx="200" cy="600" r="300" fill="rgba(139, 92, 246, 0.15)"/>
  <circle cx="1100" cy="1800" r="350" fill="rgba(34, 197, 94, 0.12)"/>

  <!-- Headline -->
  <text x="645" y="220" font-family="Inter, sans-serif" font-size="80" font-weight="900" fill="#ffffff" text-anchor="middle">Beautiful</text>
  <text x="645" y="320" font-family="Inter, sans-serif" font-size="80" font-weight="900" fill="#22c55e" text-anchor="middle">Dark Mode 🌙</text>
  <text x="645" y="400" font-family="Inter, sans-serif" font-size="36" font-weight="500" fill="rgba(255,255,255,0.7)" text-anchor="middle">Aankhon ki dosti, raat din kaam karein</text>

  <!-- Phone 1 (Left, angled) -->
  <g transform="translate(80, 580) rotate(-8)" filter="url(#shadow7)">
    <rect x="0" y="0" width="500" height="1050" rx="60" ry="60" fill="url(#phone7)"/>
    <rect x="12" y="12" width="476" height="1026" rx="50" ry="50" fill="#000000"/>
    <rect x="22" y="22" width="456" height="1006" rx="42" ry="42" fill="#0f172a"/>

    <rect x="200" y="35" width="100" height="25" rx="12" ry="12" fill="#000000"/>

    <text x="50" y="120" font-family="Inter, sans-serif" font-size="32" font-weight="900" fill="#ffffff">Dashboard</text>
    <text x="50" y="155" font-family="Inter, sans-serif" font-size="18" font-weight="500" fill="#64748b">Aaj ki sales</text>

    <!-- Big card -->
    <rect x="40" y="200" width="420" height="200" rx="30" ry="30" fill="url(#card1)"/>
    <text x="60" y="245" font-family="Inter, sans-serif" font-size="18" font-weight="700" fill="rgba(255,255,255,0.7)">REVENUE</text>
    <text x="60" y="320" font-family="Inter, sans-serif" font-size="56" font-weight="900" fill="#ffffff">Rs 64.5K</text>
    <rect x="60" y="340" width="160" height="40" rx="20" ry="20" fill="rgba(255,255,255,0.2)"/>
    <text x="140" y="367" font-family="Inter, sans-serif" font-size="18" font-weight="700" fill="#ffffff" text-anchor="middle">↗ +24.5%</text>

    <!-- Stats row -->
    <rect x="40" y="440" width="200" height="120" rx="24" ry="24" fill="#1e293b"/>
    <text x="60" y="480" font-family="Inter, sans-serif" font-size="14" font-weight="700" fill="#64748b">ORDERS</text>
    <text x="60" y="535" font-family="Inter, sans-serif" font-size="36" font-weight="900" fill="#ffffff">42</text>

    <rect x="260" y="440" width="200" height="120" rx="24" ry="24" fill="#1e293b"/>
    <text x="280" y="480" font-family="Inter, sans-serif" font-size="14" font-weight="700" fill="#64748b">PROFIT</text>
    <text x="280" y="535" font-family="Inter, sans-serif" font-size="36" font-weight="900" fill="#22c55e">Rs 18K</text>

    <!-- Chart placeholder -->
    <rect x="40" y="600" width="420" height="240" rx="24" ry="24" fill="#1e293b"/>
    <text x="60" y="640" font-family="Inter, sans-serif" font-size="18" font-weight="700" fill="#ffffff">7-Day Trend</text>
    <polyline points="60,800 130,770 200,790 270,740 340,720 410,750 460,690"
              fill="none" stroke="#22c55e" stroke-width="4"/>
    <circle cx="460" cy="690" r="8" fill="#22c55e"/>

    <!-- List items -->
    <rect x="40" y="880" width="420" height="100" rx="20" ry="20" fill="#1e293b"/>
    <circle cx="80" cy="930" r="22" fill="#fef3c7"/>
    <text x="80" y="940" font-family="Inter, sans-serif" font-size="24" text-anchor="middle">🍵</text>
    <text x="120" y="920" font-family="Inter, sans-serif" font-size="20" font-weight="700" fill="#ffffff">Tapal Chai</text>
    <text x="120" y="950" font-family="Inter, sans-serif" font-size="16" fill="#64748b">×4 packs</text>
    <text x="440" y="940" font-family="Inter, sans-serif" font-size="22" font-weight="900" fill="#22c55e" text-anchor="end">Rs 5K</text>
  </g>

  <!-- Phone 2 (Center, straight, slightly forward) -->
  <g transform="translate(395, 530)" filter="url(#shadow7)">
    <rect x="0" y="0" width="500" height="1050" rx="60" ry="60" fill="url(#phone7)"/>
    <rect x="12" y="12" width="476" height="1026" rx="50" ry="50" fill="#000000"/>
    <rect x="22" y="22" width="456" height="1006" rx="42" ry="42" fill="#0f172a"/>

    <rect x="200" y="35" width="100" height="25" rx="12" ry="12" fill="#000000"/>

    <text x="50" y="120" font-family="Inter, sans-serif" font-size="32" font-weight="900" fill="#ffffff">POS</text>
    <text x="50" y="155" font-family="Inter, sans-serif" font-size="18" font-weight="500" fill="#64748b">Order #NF-58291</text>

    <!-- Cart items -->
    <rect x="40" y="200" width="420" height="80" rx="20" ry="20" fill="#1e293b"/>
    <rect x="55" y="215" width="50" height="50" rx="12" ry="12" fill="#fef3c7"/>
    <text x="80" y="248" font-family="Inter, sans-serif" font-size="24" text-anchor="middle">🍵</text>
    <text x="125" y="240" font-family="Inter, sans-serif" font-size="20" font-weight="700" fill="#ffffff">Tapal</text>
    <text x="125" y="265" font-family="Inter, sans-serif" font-size="14" fill="#64748b">Rs 1,250 × 2</text>
    <text x="440" y="255" font-family="Inter, sans-serif" font-size="22" font-weight="900" fill="#a78bfa" text-anchor="end">Rs 2.5K</text>

    <rect x="40" y="300" width="420" height="80" rx="20" ry="20" fill="#1e293b"/>
    <rect x="55" y="315" width="50" height="50" rx="12" ry="12" fill="#dbeafe"/>
    <text x="80" y="348" font-family="Inter, sans-serif" font-size="24" text-anchor="middle">🥛</text>
    <text x="125" y="340" font-family="Inter, sans-serif" font-size="20" font-weight="700" fill="#ffffff">Olper's</text>
    <text x="125" y="365" font-family="Inter, sans-serif" font-size="14" fill="#64748b">Rs 220 × 5</text>
    <text x="440" y="355" font-family="Inter, sans-serif" font-size="22" font-weight="900" fill="#a78bfa" text-anchor="end">Rs 1.1K</text>

    <rect x="40" y="400" width="420" height="80" rx="20" ry="20" fill="#1e293b"/>
    <rect x="55" y="415" width="50" height="50" rx="12" ry="12" fill="#fef3c7"/>
    <text x="80" y="448" font-family="Inter, sans-serif" font-size="24" text-anchor="middle">🍪</text>
    <text x="125" y="440" font-family="Inter, sans-serif" font-size="20" font-weight="700" fill="#ffffff">Peek Freans</text>
    <text x="125" y="465" font-family="Inter, sans-serif" font-size="14" fill="#64748b">Rs 50 × 12</text>
    <text x="440" y="455" font-family="Inter, sans-serif" font-size="22" font-weight="900" fill="#a78bfa" text-anchor="end">Rs 600</text>

    <!-- Total card -->
    <rect x="40" y="520" width="420" height="240" rx="30" ry="30" fill="#7c3aed"/>
    <text x="60" y="565" font-family="Inter, sans-serif" font-size="16" font-weight="700" fill="rgba(255,255,255,0.7)">SUBTOTAL</text>
    <text x="440" y="565" font-family="Inter, sans-serif" font-size="20" font-weight="700" fill="#ffffff" text-anchor="end">Rs 4,240</text>

    <text x="60" y="610" font-family="Inter, sans-serif" font-size="16" font-weight="700" fill="rgba(255,255,255,0.7)">DISCOUNT</text>
    <text x="440" y="610" font-family="Inter, sans-serif" font-size="20" font-weight="700" fill="#fbbf24" text-anchor="end">- Rs 240</text>

    <line x1="60" y1="640" x2="440" y2="640" stroke="rgba(255,255,255,0.2)" stroke-width="2"/>

    <text x="60" y="700" font-family="Inter, sans-serif" font-size="22" font-weight="900" fill="#ffffff">TOTAL</text>
    <text x="440" y="715" font-family="Inter, sans-serif" font-size="44" font-weight="900" fill="#ffffff" text-anchor="end">Rs 4,000</text>

    <!-- Checkout button -->
    <rect x="40" y="800" width="420" height="90" rx="40" ry="40" fill="#22c55e"/>
    <text x="250" y="857" font-family="Inter, sans-serif" font-size="28" font-weight="900" fill="#ffffff" text-anchor="middle">💳 CHECKOUT</text>

    <!-- Payment pills -->
    <rect x="40" y="910" width="100" height="50" rx="25" ry="25" fill="#1e293b" stroke="#22c55e" stroke-width="2"/>
    <text x="90" y="942" font-family="Inter, sans-serif" font-size="16" font-weight="700" fill="#22c55e" text-anchor="middle">💵 Cash</text>

    <rect x="150" y="910" width="100" height="50" rx="25" ry="25" fill="#1e293b"/>
    <text x="200" y="942" font-family="Inter, sans-serif" font-size="14" font-weight="700" fill="#64748b" text-anchor="middle">Jazz</text>

    <rect x="260" y="910" width="100" height="50" rx="25" ry="25" fill="#1e293b"/>
    <text x="310" y="942" font-family="Inter, sans-serif" font-size="14" font-weight="700" fill="#64748b" text-anchor="middle">Easy</text>

    <rect x="370" y="910" width="90" height="50" rx="25" ry="25" fill="#1e293b"/>
    <text x="415" y="942" font-family="Inter, sans-serif" font-size="14" font-weight="700" fill="#64748b" text-anchor="middle">📒</text>
  </g>

  <!-- Phone 3 (Right, angled opposite) -->
  <g transform="translate(710, 580) rotate(8)" filter="url(#shadow7)">
    <rect x="0" y="0" width="500" height="1050" rx="60" ry="60" fill="url(#phone7)"/>
    <rect x="12" y="12" width="476" height="1026" rx="50" ry="50" fill="#000000"/>
    <rect x="22" y="22" width="456" height="1006" rx="42" ry="42" fill="#0f172a"/>

    <rect x="200" y="35" width="100" height="25" rx="12" ry="12" fill="#000000"/>

    <text x="50" y="120" font-family="Inter, sans-serif" font-size="32" font-weight="900" fill="#ffffff">Reports</text>
    <text x="50" y="155" font-family="Inter, sans-serif" font-size="18" font-weight="500" fill="#64748b">14-day insights</text>

    <!-- Big profit -->
    <rect x="40" y="200" width="420" height="200" rx="30" ry="30" fill="#8b5cf6"/>
    <text x="60" y="245" font-family="Inter, sans-serif" font-size="18" font-weight="700" fill="rgba(255,255,255,0.7)">PROFIT (14D)</text>
    <text x="60" y="320" font-family="Inter, sans-serif" font-size="48" font-weight="900" fill="#ffffff">Rs 4.82L</text>
    <text x="60" y="365" font-family="Inter, sans-serif" font-size="18" font-weight="700" fill="#fbbf24">↗ +32.4% growth</text>

    <!-- Chart -->
    <rect x="40" y="440" width="420" height="260" rx="24" ry="24" fill="#1e293b"/>
    <text x="60" y="480" font-family="Inter, sans-serif" font-size="18" font-weight="700" fill="#ffffff">Sales Trend</text>
    <polyline points="60,640 130,610 200,620 270,580 340,560 410,600 460,520"
              fill="none" stroke="#8b5cf6" stroke-width="4"/>
    <polyline points="60,640 130,610 200,620 270,580 340,560 410,600 460,520 460,680 60,680"
              fill="rgba(139, 92, 246, 0.2)"/>
    <circle cx="60" cy="640" r="6" fill="#8b5cf6"/>
    <circle cx="200" cy="620" r="6" fill="#8b5cf6"/>
    <circle cx="340" cy="560" r="6" fill="#8b5cf6"/>
    <circle cx="460" cy="520" r="10" fill="#fbbf24" stroke="#8b5cf6" stroke-width="3"/>

    <!-- Top products -->
    <text x="50" y="740" font-family="Inter, sans-serif" font-size="20" font-weight="900" fill="#ffffff">🏆 Top Products</text>

    <rect x="40" y="760" width="420" height="70" rx="20" ry="20" fill="#1e293b"/>
    <circle cx="75" cy="795" r="22" fill="#fbbf24"/>
    <text x="75" y="803" font-family="Inter, sans-serif" font-size="20" font-weight="900" fill="#ffffff" text-anchor="middle">1</text>
    <text x="110" y="800" font-family="Inter, sans-serif" font-size="18" font-weight="700" fill="#ffffff">Tapal Chai</text>
    <text x="440" y="803" font-family="Inter, sans-serif" font-size="20" font-weight="900" fill="#fbbf24" text-anchor="end">Rs 5.7L</text>

    <rect x="40" y="850" width="420" height="70" rx="20" ry="20" fill="#1e293b"/>
    <circle cx="75" cy="885" r="22" fill="#3b82f6"/>
    <text x="75" y="893" font-family="Inter, sans-serif" font-size="20" font-weight="900" fill="#ffffff" text-anchor="middle">2</text>
    <text x="110" y="890" font-family="Inter, sans-serif" font-size="18" font-weight="700" fill="#ffffff">Olper's Milk</text>
    <text x="440" y="893" font-family="Inter, sans-serif" font-size="20" font-weight="900" fill="#60a5fa" text-anchor="end">Rs 84K</text>

    <rect x="40" y="940" width="420" height="70" rx="20" ry="20" fill="#1e293b"/>
    <circle cx="75" cy="975" r="22" fill="#22c55e"/>
    <text x="75" y="983" font-family="Inter, sans-serif" font-size="20" font-weight="900" fill="#ffffff" text-anchor="middle">3</text>
    <text x="110" y="980" font-family="Inter, sans-serif" font-size="18" font-weight="700" fill="#ffffff">Peek Freans</text>
    <text x="440" y="983" font-family="Inter, sans-serif" font-size="20" font-weight="900" fill="#22c55e" text-anchor="end">Rs 16K</text>
  </g>

  <!-- Bottom features list -->
  <g transform="translate(120, 1820)">
    <g transform="translate(0, 0)">
      <circle cx="40" cy="40" r="40" fill="rgba(34, 197, 94, 0.2)"/>
      <text x="40" y="55" font-family="Inter, sans-serif" font-size="36" text-anchor="middle">🌙</text>
      <text x="100" y="35" font-family="Inter, sans-serif" font-size="28" font-weight="900" fill="#ffffff">True OLED Black</text>
      <text x="100" y="65" font-family="Inter, sans-serif" font-size="20" font-weight="500" fill="#94a3b8">Battery saver design</text>
    </g>

    <g transform="translate(540, 0)">
      <circle cx="40" cy="40" r="40" fill="rgba(139, 92, 246, 0.2)"/>
      <text x="40" y="55" font-family="Inter, sans-serif" font-size="36" text-anchor="middle">👁️</text>
      <text x="100" y="35" font-family="Inter, sans-serif" font-size="28" font-weight="900" fill="#ffffff">Eye Friendly</text>
      <text x="100" y="65" font-family="Inter, sans-serif" font-size="20" font-weight="500" fill="#94a3b8">Long hours, no strain</text>
    </g>

    <g transform="translate(0, 110)">
      <circle cx="40" cy="40" r="40" fill="rgba(251, 191, 36, 0.2)"/>
      <text x="40" y="55" font-family="Inter, sans-serif" font-size="36" text-anchor="middle">⚡</text>
      <text x="100" y="35" font-family="Inter, sans-serif" font-size="28" font-weight="900" fill="#ffffff">Auto Switch</text>
      <text x="100" y="65" font-family="Inter, sans-serif" font-size="20" font-weight="500" fill="#94a3b8">System theme follow</text>
    </g>

    <g transform="translate(540, 110)">
      <circle cx="40" cy="40" r="40" fill="rgba(59, 130, 246, 0.2)"/>
      <text x="40" y="55" font-family="Inter, sans-serif" font-size="36" text-anchor="middle">🎨</text>
      <text x="100" y="35" font-family="Inter, sans-serif" font-size="28" font-weight="900" fill="#ffffff">Beautiful UI</text>
      <text x="100" y="65" font-family="Inter, sans-serif" font-size="20" font-weight="500" fill="#94a3b8">Pixel-perfect design</text>
    </g>
  </g>

  <text x="645" y="2680" font-family="Inter, sans-serif" font-size="34" font-weight="700" fill="rgba(255,255,255,0.95)" text-anchor="middle">🌙 Light • Dark • System modes</text>
  <text x="645" y="2730" font-family="Inter, sans-serif" font-size="26" font-weight="500" fill="rgba(255,255,255,0.6)" text-anchor="middle">Adaptive UI for every shopkeeper</text>
</svg>
